<?xml version="1.0" standalone="no"?>
<!DOCTYPE svg PUBLIC "-//W3C//DTD SVG 20010904//EN"
 "http://www.w3.org/TR/2001/REC-SVG-20010904/DTD/svg10.dtd">
<svg version="1.0" xmlns="http://www.w3.org/2000/svg"
 width="701.000000pt" height="701.000000pt" viewBox="0 0 701.000000 701.000000"
 preserveAspectRatio="xMidYMid meet">
<metadata>
Created by potrace 1.14, written by Peter Selinger 2001-2017
</metadata>
<g transform="translate(0.000000,701.000000) scale(0.100000,-0.100000)"
fill="#000000" stroke="none">
<path d="M3224 6734 c-68 -33 -64 26 -64 -973 l0 -901 -1502 0 c-1446 0 -1505
-1 -1544 -19 -23 -10 -54 -36 -70 -57 l-29 -37 0 -372 0 -372 29 -37 c16 -21
47 -47 70 -57 40 -18 141 -19 3406 -19 3254 0 3366 1 3406 19 22 10 50 31 62
46 22 27 22 33 22 420 0 383 -1 393 -21 419 -11 14 -35 34 -52 44 -30 16 -135
17 -1537 22 l-1505 5 -5 905 c-4 684 -8 910 -17 926 -28 49 -61 54 -350 54
-218 0 -274 -3 -299 -16z"/>
<path d="M345 3853 c3 -16 106 -766 230 -1669 123 -902 231 -1659 240 -1683
29 -84 83 -143 175 -192 l45 -24 2485 0 2485 0 45 24 c94 50 145 106 176 194
8 22 115 779 239 1681 124 903 227 1653 230 1669 l4 27 -3179 0 -3179 0 4 -27z"/>
</g>
</svg>
