<svg width="24" height="24" viewBox="0 0 24 24" fill="none" xmlns="http://www.w3.org/2000/svg">
<path d="M22.0505 8.31416H18.2178L12.7655 0.415708C12.6764 0.286635 12.5609 0.181873 12.4281 0.109719C12.2953 0.0375644 12.1488 0 12.0003 0C11.8518 0 11.7054 0.0375644 11.5725 0.109719C11.4397 0.181873 11.3242 0.286635 11.2351 0.415708L5.78286 8.31416H1.95016C1.43457 8.3133 0.939719 8.53465 0.574136 8.92966C0.208554 9.32468 0.0020911 9.8611 3.37969e-05 10.4213C-0.00107961 10.6193 0.0253232 10.8164 0.0783499 11.0059L2.84452 21.6025C3.02439 22.2932 3.40693 22.9011 3.93397 23.3339C4.46101 23.7666 5.10371 24.0005 5.76433 24H18.2363C18.897 23.9978 19.5393 23.7634 20.0672 23.3319C20.5952 22.9004 20.9805 22.2949 21.1657 21.6058L23.9354 10.9948C23.9482 10.9446 23.9574 10.8933 23.9629 10.8415L23.9946 10.5213C23.9982 10.4879 24 10.4543 24 10.4206C23.9978 9.86068 23.7913 9.32452 23.4259 8.92966C23.0605 8.53481 22.5658 8.31347 22.0505 8.31416ZM12.0003 2.7716L15.8264 8.31416H8.17419L12.0003 2.7716ZM12.0003 18.6854C11.555 18.6831 11.1203 18.5375 10.7511 18.2671C10.3819 17.9966 10.0947 17.6133 9.92574 17.1657C9.7568 16.718 9.7137 16.226 9.80188 15.7518C9.89005 15.2775 10.1056 14.8423 10.4212 14.501C10.7368 14.1597 11.1384 13.9276 11.5753 13.8341C12.0122 13.7406 12.4648 13.7897 12.876 13.9754C13.2873 14.1611 13.6386 14.475 13.8858 14.8774C14.133 15.2798 14.2649 15.7528 14.2649 16.2366C14.2616 16.8868 14.0215 17.509 13.5972 17.9674C13.1728 18.4258 12.5987 18.683 12.0003 18.6828V18.6854Z" fill="white"/>
</svg>
